<svg xmlns="http://www.w3.org/2000/svg" width="64" height="64" viewBox="0 0 64 64"><title>Rdio</title><path fill="#fff" d="M53.342 28.44c8.18-2.425 12.974-11.09 9.53-11.26-8.842-.454-16.403-4.735-21.483-7.927-.547-.36-1.1-.695-1.665-1.01v19.915c0 6.578-3.973 11.826-8.5 14.005-6.553 3.17-13.86 1.174-16.315-4.44-2.454-5.613.872-12.73 7.432-15.9 3.625-1.75 7.48-1.912 10.622-.77V5.602c-1.995-.47-4.056-.736-6.182-.736C11.99 4.867 0 17.007 0 32c0 14.978 11.99 27.133 26.782 27.133 14.804 0 26.796-12.155 26.796-27.133 0-1.212-.086-2.4-.236-3.56z"/></svg>