<?xml version="1.0" encoding="utf-8"?>
<!-- Generator: Adobe Illustrator 16.0.0, SVG Export Plug-In . SVG Version: 6.00 Build 0)  -->
<!DOCTYPE svg PUBLIC "-//W3C//DTD SVG 1.1//EN" "http://www.w3.org/Graphics/SVG/1.1/DTD/svg11.dtd">
<svg version="1.1" id="Layer_1" xmlns="http://www.w3.org/2000/svg" xmlns:xlink="http://www.w3.org/1999/xlink" x="0px" y="0px"
	 width="64px" height="64px" viewBox="0 0 64 64" enable-background="new 0 0 64 64" xml:space="preserve">
<title>Android</title>
<g>
	<path fill="#FFFFFF" d="M40.331,6.204l0.636-1.061l0.651-0.892l1.495-2.243c0.231-0.314,0.158-0.693-0.2-0.959
		C42.7,0.948,42.286,0.993,42.056,1.31l-1.561,2.324l-0.707,1.072L39.099,5.77c-2.145-0.96-4.566-1.395-7.057-1.395
		c-2.608,0-5.001,0.435-7.195,1.395l-0.711-1.064l-0.651-1.072L21.869,1.31c-0.109-0.316-0.523-0.361-0.802-0.261
		c-0.213,0.266-0.331,0.645-0.099,0.959l1.495,2.243l0.656,0.892l0.674,1.061c-5.078,2.302-8.627,6.801-8.627,11.981h33.591
		C48.757,13.004,45.383,8.506,40.331,6.204z M24.802,13.364c-0.933,0-1.759-0.788-1.759-1.827c0-0.893,0.827-1.669,1.759-1.669
		c0.983,0,1.799,0.776,1.799,1.669C26.602,12.576,25.785,13.364,24.802,13.364z M39.152,13.364c-0.925,0-1.7-0.788-1.7-1.827
		c0-0.893,0.775-1.669,1.7-1.669c1.085,0,1.896,0.776,1.896,1.669C41.049,12.576,40.237,13.364,39.152,13.364z"/>
	<path fill="#FFFFFF" d="M15.494,20.638h-0.328v3.027v2.349v20.957c0,2.164,1.753,3.768,3.817,3.768h2.799
		c-0.07,0.352-0.118,0.684-0.118,1.043v0.236v1.209v6.113c0,2.084,1.591,3.66,3.548,3.66c1.934,0,3.59-1.576,3.59-3.66v-6.113
		v-1.209v-0.236c0-0.359-0.078-0.691-0.182-1.043h6.701c-0.067,0.352-0.087,0.684-0.087,1.043v0.236v1.209v6.113
		c0,2.084,1.554,3.66,3.628,3.66c1.929,0,3.553-1.576,3.553-3.66v-6.113v-1.209v-0.236c0-0.359-0.06-0.691-0.166-1.043h2.736
		c2.162,0,3.771-1.604,3.771-3.768V26.014v-2.349v-3.027h-0.164H15.494z"/>
	<path fill="#FFFFFF" d="M9.163,20.638c-1.934,0-3.562,1.603-3.562,3.542v15.363c0,2.086,1.628,3.66,3.562,3.66
		c2.105,0,3.659-1.574,3.659-3.66V24.18C12.821,22.24,11.268,20.638,9.163,20.638z"/>
	<path fill="#FFFFFF" d="M54.769,20.638c-1.953,0-3.597,1.603-3.597,3.542v15.363c0,2.086,1.644,3.66,3.597,3.66
		c2.074,0,3.63-1.574,3.63-3.66V24.18C58.398,22.24,56.843,20.638,54.769,20.638z"/>
</g>
</svg>
