<?xml version="1.0" encoding="utf-8"?>
<!-- Generator: Adobe Illustrator 16.0.0, SVG Export Plug-In . SVG Version: 6.00 Build 0)  -->
<!DOCTYPE svg PUBLIC "-//W3C//DTD SVG 1.1//EN" "http://www.w3.org/Graphics/SVG/1.1/DTD/svg11.dtd">
<svg version="1.1" id="Layer_1" xmlns="http://www.w3.org/2000/svg" xmlns:xlink="http://www.w3.org/1999/xlink" x="0px" y="0px"
	 width="64px" height="64px" viewBox="0 0 64 64" enable-background="new 0 0 64 64" xml:space="preserve">
<title>Apple</title>
<g>
	<path fill="#FFFFFF" d="M48.925,33.945c-0.078-7.854,6.406-11.62,6.693-11.81c-3.643-5.328-9.316-6.059-11.338-6.142
		c-4.824-0.491-9.422,2.843-11.871,2.843c-2.443,0-6.226-2.771-10.227-2.701c-5.267,0.078-10.12,3.062-12.831,7.776
		c-5.468,9.486-1.395,23.541,3.932,31.242c2.603,3.762,5.708,7.996,9.785,7.842c3.929-0.154,5.41-2.543,10.159-2.543
		c4.748,0,6.082,2.543,10.236,2.463c4.225-0.074,6.9-3.834,9.486-7.611c2.988-4.373,4.221-8.605,4.293-8.82
		C57.153,46.443,49.013,43.322,48.925,33.945z"/>
	<path fill="#FFFFFF" d="M41.118,10.9c2.16-2.625,3.625-6.271,3.229-9.9c-3.119,0.126-6.896,2.073-9.134,4.694
		c-2.007,2.328-3.761,6.03-3.292,9.593C35.401,15.558,38.949,13.52,41.118,10.9z"/>
</g>
</svg>
