<?xml version="1.0" encoding="utf-8"?>
<!-- Generator: Adobe Illustrator 16.0.0, SVG Export Plug-In . SVG Version: 6.00 Build 0)  -->
<!DOCTYPE svg PUBLIC "-//W3C//DTD SVG 1.1//EN" "http://www.w3.org/Graphics/SVG/1.1/DTD/svg11.dtd">
<svg version="1.1" id="Layer_1" xmlns="http://www.w3.org/2000/svg" xmlns:xlink="http://www.w3.org/1999/xlink" x="0px" y="0px"
	 width="64px" height="64px" viewBox="0 0 64 64" enable-background="new 0 0 64 64" xml:space="preserve">
<title>Code Pen</title>
<path fill="#FFFFFF" d="M32.248,1.161c-17.123,0-31.004,13.808-31.004,30.841c0,17.031,13.881,30.837,31.004,30.837
	c17.115,0,30.995-13.807,30.995-30.837C63.243,14.969,49.363,1.161,32.248,1.161z M32.248,57.945
	c-14.411,0-26.089-11.613-26.089-25.943c0-14.331,11.678-25.948,26.089-25.948c14.401,0,26.078,11.617,26.078,25.948
	C58.326,46.332,46.649,57.945,32.248,57.945z"/>
<path fill="#FFFFFF" d="M51.669,32.758l0.013-0.012v-0.002c0.407-0.421,0.409-1.081-0.002-1.486L36.466,16.12
	c-0.205-0.202-0.477-0.309-0.746-0.309c-0.271,0-0.543,0.107-0.744,0.309l-0.02,0.021c-0.197,0.199-0.309,0.461-0.309,0.744v4.187
	c0,0.278,0.111,0.545,0.309,0.739l10.236,10.192L34.956,42.189c-0.197,0.195-0.309,0.467-0.309,0.74v4.189
	c0,0.275,0.111,0.545,0.309,0.744l0.02,0.018c0.195,0.193,0.465,0.307,0.744,0.307c0.283,0,0.547-0.113,0.746-0.307L51.669,32.758z"
	/>
<path fill="#FFFFFF" d="M13.187,32.758l-0.013-0.012v-0.002c-0.404-0.421-0.404-1.081,0-1.486L28.392,16.12
	c0.208-0.202,0.479-0.309,0.747-0.309c0.272,0,0.54,0.107,0.744,0.309l0.021,0.021c0.201,0.199,0.312,0.461,0.312,0.744v4.187
	c0,0.278-0.111,0.545-0.312,0.739L19.664,32.002l10.239,10.187c0.201,0.195,0.312,0.467,0.312,0.74v4.189
	c0,0.275-0.111,0.545-0.312,0.744l-0.021,0.018c-0.194,0.193-0.463,0.307-0.744,0.307c-0.278,0-0.546-0.113-0.747-0.307
	L13.187,32.758z"/>
</svg>
