<?xml version="1.0" encoding="utf-8"?>
<!-- Generator: Adobe Illustrator 16.0.0, SVG Export Plug-In . SVG Version: 6.00 Build 0)  -->
<!DOCTYPE svg PUBLIC "-//W3C//DTD SVG 1.1//EN" "http://www.w3.org/Graphics/SVG/1.1/DTD/svg11.dtd">
<svg version="1.1" id="Layer_1" xmlns="http://www.w3.org/2000/svg" xmlns:xlink="http://www.w3.org/1999/xlink" x="0px" y="0px"
	 width="64px" height="64px" viewBox="0 0 64 64" enable-background="new 0 0 64 64" xml:space="preserve">
<title>Twitter</title>
<g>
	<path fill="#FFFFFF" d="M10.228,14.383v8.221H1v18.751h15.284V14.383H10.228z M10.228,36.27h-3.09v-8.45h3.09V36.27z"/>
	<path fill="#FFFFFF" d="M28.928,22.645v18.749h9.423v2.965h-9.494v5.258H41.64h2.773V22.645H28.928z M38.351,36.181h-3.25v-8.447
		h3.25V36.181z"/>
	<path fill="#FFFFFF" d="M47.55,22.645v18.749h9.326v2.965h-9.394v5.258h12.782H63V22.645H47.55z M56.876,36.181h-3.205v-8.447
		h3.205V36.181z"/>
	<rect x="19.44" y="22.582" fill="#FFFFFF" width="6.336" height="18.812"/>
	<rect x="19.44" y="14.651" fill="#FFFFFF" width="6.336" height="5.119"/>
</g>
</svg>
