<svg xmlns="http://www.w3.org/2000/svg" width="64" height="64" viewBox="0 0 64 64"><path fill="#fff" d="M54.402 19.328c-7.13-8.72-12.882-9.488-16.52-11.567C35.276 6.273 32.874 3.653 29.82 0c-.205 1.974-.416 3.942-1.705 5.396-2.533 2.863-5.973 4.62-8.777 6.006C12.205 14.918 4 23.11 4 36.2c0 6.338 2.44 13.16 7.05 18.418 4.9 5.595 12.237 9.425 20.952 9.382 7.787-.04 14.182-2.586 18.986-6.743C56.61 52.395 60 45.253 60 36.2c0-6.67-1.986-12.448-5.598-16.872zm-7.884 38.86c-3.44 2.875-12.746 4.515-17.174.855-.436-.36-.45-.904-.164-1.22.215-.236.402-.345.66-.494.322-.186.736-.112 1.016.143 1.744 1.615 9.99 2.97 14.945-.367.183-.123.42-.206.62-.117.15.063.242.144.262.316.03.277.05.7-.164.882zm-11.59-4.355c.012-.414.127-.67.422-.962 1.695-1.692 3.5-2.694 5.525-2.645 3.234.08 3.373.843 4.314 2.737.187.385.077.718-.046.913-.066.107-.438.463-.562.463-.312 0-.426-.114-.553-.43-.772-1.93-1.915-1.938-3.36-1.938-2.22-.002-3.19 1.083-4.502 2.17-.328.272-.635.474-.88.27-.198-.17-.364-.402-.36-.577zm17.353-.7c-3.09-.24-6.534-7.363-9.933-7.305-4.475.076-11.033 7.618-18.398 7.51-3.76-.057-7.806-1.43-7.93-7.162-.1-4.776 4.556-9.74 10.472-9.6 7.86.185 11.734 7.072 15.666 7.097 3.854.027 8.385-6 12.277-6.094 2.074-.05 3.674 1.952 3.828 4.74.233 4.183-2.42 11.087-5.982 10.813z"/></svg>