<?xml version="1.0" encoding="utf-8"?>
<!-- Generator: Adobe Illustrator 16.0.0, SVG Export Plug-In . SVG Version: 6.00 Build 0)  -->
<!DOCTYPE svg PUBLIC "-//W3C//DTD SVG 1.1//EN" "http://www.w3.org/Graphics/SVG/1.1/DTD/svg11.dtd">
<svg version="1.1" id="Layer_1" xmlns="http://www.w3.org/2000/svg" xmlns:xlink="http://www.w3.org/1999/xlink" x="0px" y="0px"
	 width="64px" height="64px" viewBox="0 0 64 64" enable-background="new 0 0 64 64" xml:space="preserve">
<title>Forrst</title>
<path fill="#FFFFFF" d="M59.095,61.057L33.333,1.824C33.123,1.192,32.625,1,32.06,1l0,0c-0.586,0-1.106,0.192-1.334,0.823
	L4.901,61.055c-0.167,0.412-0.143,1.039,0.151,1.424C5.28,62.877,5.747,63,6.229,63h22.91V50.516l-6.137-4.359l1.009-1.373
	l5.128,3.533V38.205h5.832v6.684l5.325-2.66l0.825,1.549l-6.15,3.055v4.871l9.785-4.904l0.826,1.545l-10.611,5.314V63h22.796
	c0.484,0,0.941-0.123,1.215-0.521C59.238,62.094,59.261,61.467,59.095,61.057z"/>
</svg>
