<?xml version="1.0" encoding="utf-8"?>
<!-- Generator: Adobe Illustrator 16.0.0, SVG Export Plug-In . SVG Version: 6.00 Build 0)  -->
<!DOCTYPE svg PUBLIC "-//W3C//DTD SVG 1.1//EN" "http://www.w3.org/Graphics/SVG/1.1/DTD/svg11.dtd">
<svg version="1.1" id="Layer_1" xmlns="http://www.w3.org/2000/svg" xmlns:xlink="http://www.w3.org/1999/xlink" x="0px" y="0px"
	 width="64px" height="64px" viewBox="0 0 64 64" enable-background="new 0 0 64 64" xml:space="preserve">
<title>Foursquare</title>
<g>
	<g>
		<path fill="#FFFFFF" d="M48.751,1c0,0-28.497,0-33.052,0c-4.562,0-5.908,3.435-5.908,5.585c0,2.178,0,52.548,0,52.548
			c0,2.436,1.316,3.338,2.042,3.639c0.727,0.293,2.758,0.545,3.979-0.859c0,0,15.622-18.115,15.876-18.383
			c0.414-0.408,0.414-0.408,0.826-0.408c0.797,0,6.812,0,10.089,0c4.252,0,4.933-3.025,5.36-4.799
			c0.378-1.512,4.525-22.701,5.903-29.426C54.923,3.769,53.617,1,48.751,1z M47.964,38.322c0.378-1.512,4.525-22.701,5.903-29.426
			 M46.811,9.944l-1.391,7.243c-0.167,0.779-1.15,1.596-2.061,1.596c-0.908,0-12.891,0-12.891,0c-1.445,0-2.485,0.998-2.485,2.443
			v1.581c0,1.446,1.042,2.47,2.493,2.47c0,0,9.916,0,10.945,0c1.023,0,2.017,1.122,1.806,2.211c-0.23,1.091-1.261,6.53-1.384,7.125
			c-0.126,0.588-0.826,1.611-2.042,1.611c-1.028,0-8.912,0-8.912,0c-1.633,0-2.119,0.221-3.208,1.555
			c-1.09,1.367-10.855,13.105-10.855,13.105c-0.11,0.109-0.209,0.086-0.209-0.039V9.847c0-0.932,0.816-2.021,2.021-2.021
			c0,0,25.506,0,26.538,0C46.146,7.826,47.055,8.751,46.811,9.944z"/>
	</g>
</g>
</svg>
