<?xml version="1.0" encoding="utf-8"?>
<!-- Generator: Adobe Illustrator 16.0.0, SVG Export Plug-In . SVG Version: 6.00 Build 0)  -->
<!DOCTYPE svg PUBLIC "-//W3C//DTD SVG 1.1//EN" "http://www.w3.org/Graphics/SVG/1.1/DTD/svg11.dtd">
<svg version="1.1" id="Layer_1" xmlns="http://www.w3.org/2000/svg" xmlns:xlink="http://www.w3.org/1999/xlink" x="0px" y="0px"
	 width="64px" height="64px" viewBox="0 0 64 64" enable-background="new 0 0 64 64" xml:space="preserve">
<title>Google Plus</title>
<path fill="#FFFFFF" d="M21.674,60.123c-7.383,0-12.771-4.615-12.771-10.245c0-5.57,6.68-10.133,14.081-10.082
	c1.693,0.006,3.334,0.343,4.793,0.762c3.99,2.707,6.924,4.445,7.727,7.548c0.121,0.701,0.234,1.404,0.234,1.937
	C35.738,55.672,32.111,60.123,21.674,60.123 M23.617,27.078c-4.979-0.069-9.672-5.607-10.596-12.063
	C12.203,8.562,15.55,3.438,20.506,3.697c4.988,0.068,9.729,5.314,10.544,11.784C31.939,22.112,28.653,27.324,23.617,27.078
	 M33.98,36.799c-1.807-1.177-5.154-4.203-5.154-6.02c0-2.163,0.648-3.048,3.703-5.57c3.232-2.391,5.506-5.997,5.506-10.104
	c0-4.693-2.17-9.497-6.266-11.026h6.139l4.342-3.247H22.929c-8.637,0-16.767,6.651-16.767,14.203
	c0,7.825,5.908,13.974,14.693,13.974c0.603,0,1.171-0.004,1.821-0.043c-0.647,1.11-1.048,2.464-1.048,3.682
	c0,2.215,1.127,3.823,2.629,5.287c-1.109,0-2.212,0.038-3.342,0.038C10.254,37.972,2,44.766,2,51.864
	c0,7.04,9.028,11.305,19.697,11.305c12.283,0,19.027-6.854,19.027-13.893C40.725,43.658,39.037,40.453,33.98,36.799 M62,27.728
	h-7.504v-7.506h-6.037v7.506h-7.506v6.033h7.506v7.505h6.037v-7.505H62V27.728z"/>
</svg>
