<?xml version="1.0" encoding="utf-8"?>
<!-- Generator: Adobe Illustrator 16.0.0, SVG Export Plug-In . SVG Version: 6.00 Build 0)  -->
<!DOCTYPE svg PUBLIC "-//W3C//DTD SVG 1.1//EN" "http://www.w3.org/Graphics/SVG/1.1/DTD/svg11.dtd">
<svg version="1.1" id="Layer_1" xmlns="http://www.w3.org/2000/svg" xmlns:xlink="http://www.w3.org/1999/xlink" x="0px" y="0px"
	 width="64px" height="64px" viewBox="0 0 64 64" enable-background="new 0 0 64 64" xml:space="preserve">
<title>Twitter</title>
<g>
	<polygon fill="#4186FB" points="22.81,43.367 22.458,43.367 22.297,43.666 13.895,58.338 13.384,59.234 14.408,59.234 
		53.585,59.234 53.92,59.234 54.092,58.934 62.496,44.244 63,43.367 61.991,43.367 	"/>
	<polygon fill="#FCCE47" points="44.56,39.645 44.721,39.943 45.064,39.943 61.991,39.877 63,39.873 62.496,38.98 42.902,5.064 
		42.743,4.765 42.395,4.765 25.478,4.831 24.455,4.834 24.965,5.727 	"/>
	<polygon fill="#0DA961" points="30.48,22.403 30.306,22.104 21.787,7.49 21.274,6.609 20.761,7.491 1.176,41.426 1,41.725 
		1.176,42.006 9.691,56.629 10.206,57.521 10.718,56.629 30.306,22.702 	"/>
</g>
</svg>
