<svg xmlns="http://www.w3.org/2000/svg" width="64" height="64" viewBox="-17.479 -20 64 64" enable-background="new -17.479 -20 64 64"><title>Instagram</title><path fill="#fff" d="M-9.26-20h47.573c4.515 0 8.208 3.695 8.208 8.217V35.79c0 4.515-3.692 8.208-8.207 8.208H-9.26c-4.523 0-8.22-3.693-8.22-8.207v-47.573c0-4.522 3.697-8.216 8.22-8.216zm38.404 7.106c-1.58 0-2.88 1.302-2.88 2.89v6.89c0 1.587 1.3 2.888 2.88 2.888h7.237c1.58 0 2.88-1.3 2.88-2.89v-6.888c0-1.588-1.3-2.89-2.88-2.89h-7.236zm10.14 19.96h-5.63c.54 1.743.82 3.58.82 5.495 0 10.638-8.902 19.27-19.893 19.27-10.986 0-19.895-8.632-19.895-19.27 0-1.915.296-3.75.828-5.495h-5.875v27.04c0 1.396 1.14 2.532 2.54 2.532H36.75c1.395 0 2.532-1.137 2.532-2.53V7.064zM14.58-.593c-7.095 0-12.85 5.572-12.85 12.458 0 6.875 5.755 12.45 12.85 12.45 7.105 0 12.86-5.575 12.86-12.45 0-6.887-5.755-12.458-12.86-12.458z"/></svg>