<?xml version="1.0" encoding="utf-8"?>
<!-- Generator: Adobe Illustrator 16.0.0, SVG Export Plug-In . SVG Version: 6.00 Build 0)  -->
<!DOCTYPE svg PUBLIC "-//W3C//DTD SVG 1.1//EN" "http://www.w3.org/Graphics/SVG/1.1/DTD/svg11.dtd">
<svg version="1.1" id="Layer_1" xmlns="http://www.w3.org/2000/svg" xmlns:xlink="http://www.w3.org/1999/xlink" x="0px" y="0px"
	 width="64px" height="64px" viewBox="0 0 64 64" enable-background="new 0 0 64 64" xml:space="preserve">
<title>Twitter</title>
<path fill="#FFFFFF" d="M25.82,22.128L37.19,5.659C39.337,2.55,42.117,1,45.514,1c2.779,0,5.183,0.99,7.207,2.958
	c2.035,1.969,3.054,4.329,3.054,7.068c0,2.027-0.54,3.826-1.618,5.375L43.912,31.312l12.532,15.887
	c1.259,1.594,1.881,3.432,1.881,5.551c0,2.805-0.98,5.213-2.959,7.242C53.407,62,51.007,63,48.207,63
	c-3.075,0-5.42-0.994-7.025-2.994L25.82,40.842v10.57c0,3.018-0.525,5.352-1.569,7.025C22.344,61.475,19.568,63,15.927,63
	c-3.315,0-5.886-1.113-7.704-3.354c-1.701-2.059-2.548-4.787-2.548-8.186V12.283c0-3.226,0.856-5.876,2.599-7.963
	C10.092,2.099,12.6,1,15.79,1c3.048,0,5.584,1.099,7.612,3.319c1.132,1.218,1.851,2.458,2.151,3.709
	c0.179,0.778,0.268,2.224,0.268,4.344V22.128z"/>
</svg>
