<?xml version="1.0" encoding="utf-8"?>
<!-- Generator: Adobe Illustrator 16.0.0, SVG Export Plug-In . SVG Version: 6.00 Build 0)  -->
<!DOCTYPE svg PUBLIC "-//W3C//DTD SVG 1.1//EN" "http://www.w3.org/Graphics/SVG/1.1/DTD/svg11.dtd">
<svg version="1.1" id="Layer_1" xmlns="http://www.w3.org/2000/svg" xmlns:xlink="http://www.w3.org/1999/xlink" x="0px" y="0px"
	 width="64px" height="64px" viewBox="0 0 64 64" enable-background="new 0 0 64 64" xml:space="preserve">
<title>Twitter</title>
<path fill="#FFFFFF" d="M54.031,29.157c-0.527-0.241-0.967-0.372-1.609-0.475c-3.777-1.302-6.07-2.025-6.07-5.038
	c0-2.369,1.875-4.097,4.477-4.097c1.934,0,3.404,0.819,4.721,2.561c0.176,0.194,0.305,0.278,0.559,0.158l3.818-1.9
	c0.234-0.059,0.285-0.176,0.295-0.351c0.01-0.132,0.006-0.212-0.01-0.255c-2.17-3.721-5.154-5.537-9.264-5.537
	c-6.123,0-10.182,3.817-10.182,9.557c0,5.976,3.82,8.505,11.021,10.878c4.256,1.383,6.121,2.115,6.121,5.088
	c0,3.26-3.092,5.627-7.148,5.504c-4.35-0.068-5.604-2.35-7.316-6.094c-2.711-6.422-5.943-13.763-5.979-13.864
	c-3.086-7.222-9.391-11.459-17.202-11.459c-10.182,0-18.654,8.334-18.654,18.655c0,10.334,8.473,18.656,18.654,18.656
	c5.617,0,10.844-2.434,14.479-6.783c0.059-0.127,0.094-0.424,0.047-0.559l-2.301-5.336c-0.195-0.127-0.295-0.227-0.38-0.229
	c-0.272-0.008-0.344,0.068-0.522,0.191c-2.114,4.281-6.493,6.822-11.323,6.822c-7.079,0-12.733-5.758-12.733-12.764
	c0-7.044,5.654-12.75,12.733-12.75c5.192,0,9.801,3.018,11.666,7.538l5.882,13.315l0.717,1.471c2.613,6.105,6.42,8.893,12.426,8.932
	c7.32,0,12.654-4.889,12.654-11.08C63.607,33.451,60.162,31.076,54.031,29.157z"/>
</svg>
