<?xml version="1.0" encoding="utf-8"?>
<!-- Generator: Adobe Illustrator 16.0.0, SVG Export Plug-In . SVG Version: 6.00 Build 0)  -->
<!DOCTYPE svg PUBLIC "-//W3C//DTD SVG 1.1//EN" "http://www.w3.org/Graphics/SVG/1.1/DTD/svg11.dtd">
<svg version="1.1" id="Layer_1" xmlns="http://www.w3.org/2000/svg" xmlns:xlink="http://www.w3.org/1999/xlink" x="0px" y="0px"
	 width="64px" height="64px" viewBox="0 0 64 64" enable-background="new 0 0 64 64" xml:space="preserve">
<title>Twitter</title>
<path fill="#FFFFFF" d="M14.651,60.217H2.57V21.532h12.081V60.217z M8.295,16.686h-0.09C3.841,16.686,1,13.729,1,9.978
	c0-3.818,2.911-6.72,7.386-6.72c4.452,0,7.204,2.88,7.291,6.717C15.676,13.715,12.837,16.686,8.295,16.686z M63,60.217H49.306
	V40.189c0-5.225-2.128-8.795-6.848-8.795c-3.618,0-5.619,2.381-6.547,4.729c-0.35,0.84-0.29,1.994-0.29,3.158v20.936H22.036
	c0,0,0.18-35.468,0-38.685h13.585v6.063c0.792-2.662,5.135-6.431,12.049-6.431c8.596,0,15.33,5.53,15.33,17.553V60.217z"/>
</svg>
