<?xml version="1.0" encoding="utf-8"?>
<!-- Generator: Adobe Illustrator 16.0.0, SVG Export Plug-In . SVG Version: 6.00 Build 0)  -->
<!DOCTYPE svg PUBLIC "-//W3C//DTD SVG 1.1//EN" "http://www.w3.org/Graphics/SVG/1.1/DTD/svg11.dtd">
<svg version="1.1" id="Layer_1" xmlns="http://www.w3.org/2000/svg" xmlns:xlink="http://www.w3.org/1999/xlink" x="0px" y="0px"
	 width="64px" height="64px" viewBox="0 0 64 64" enable-background="new 0 0 64 64" xml:space="preserve">
<title>Twitter</title>
<path fill="#FFFFFF" d="M62.985,16.248c-0.183-2.589-0.849-4.829-2.011-6.793c-3.073-5.483-9.37-8.056-15.112-8.056H14.679L1,62.602
	h18.154l4.438-20.3h13.173c0.131,0,0.205-0.015,0.354-0.015c7.405-0.138,14.075-2.803,18.818-7.712
	c3.087-3.204,5.373-7.409,6.442-12.354C62.89,20.093,63.053,18.108,62.985,16.248z M45.217,22.222
	c-0.448,1.99-1.586,3.936-3.099,5.391c-0.625,0.429-1.213,0.97-1.839,1.277c-1.712,1.151-3.492,1.766-5.497,1.766h-8.461
	l3.591-15.536l0.28-1.291h8.955c1.517,0,2.909,0.533,3.882,1.291C45.139,16.603,46.056,19.144,45.217,22.222z"/>
</svg>
