<?xml version="1.0" encoding="utf-8"?>
<!-- Generator: Adobe Illustrator 16.0.0, SVG Export Plug-In . SVG Version: 6.00 Build 0)  -->
<!DOCTYPE svg PUBLIC "-//W3C//DTD SVG 1.1//EN" "http://www.w3.org/Graphics/SVG/1.1/DTD/svg11.dtd">
<svg version="1.1" id="Layer_1" xmlns="http://www.w3.org/2000/svg" xmlns:xlink="http://www.w3.org/1999/xlink" x="0px" y="0px"
	 width="64px" height="64px" viewBox="0 0 64 64" enable-background="new 0 0 64 64" xml:space="preserve">
<title>pinterest</title>
<path fill="#FFFFFF" d="M31.967,0.914C14.898,0.914,1,14.984,1,32c0,12.73,7.594,23.812,18.499,28.447
	c-0.04-2.015-0.005-4.624,0.636-7.107c0.489-2.402,3.877-16.906,3.877-16.906s-0.878-1.923-0.878-4.887
	c0-4.562,2.656-7.961,5.994-7.961c2.728,0,4.168,2.002,4.168,4.579c0,2.925-1.844,7.106-2.806,10.954
	c-0.817,3.331,1.692,5.991,4.997,5.991c5.77,0,9.795-7.529,9.795-16.501c0-6.779-4.541-11.771-13.008-11.771
	c-9.392,0-15.146,6.897-15.146,14.748c0,2.667,0.768,4.744,1.968,6.225c0.644,0.541,0.698,0.861,0.404,1.619
	c-0.07,0.658-0.43,1.924-0.525,2.557c-0.268,0.77-0.96,1.091-1.688,0.767c-4.238-1.818-6.362-6.627-6.362-11.926
	c0-8.723,7.457-19.44,22.323-19.44c11.754,0,19.584,8.599,19.584,17.889c0,12.087-6.765,21.307-16.804,21.307
	c-3.336,0-6.448-1.833-7.543-3.974c0,0-1.842,7.156-2.213,8.564c-0.536,2.52-1.924,4.834-3.076,6.707
	c2.741,0.789,5.689,1.207,8.771,1.207C49.119,63.086,63,49.185,63,32C63,14.984,49.119,0.914,31.967,0.914"/>
</svg>
