<?xml version="1.0" encoding="utf-8"?>
<!-- Generator: Adobe Illustrator 16.0.0, SVG Export Plug-In . SVG Version: 6.00 Build 0)  -->
<!DOCTYPE svg PUBLIC "-//W3C//DTD SVG 1.1//EN" "http://www.w3.org/Graphics/SVG/1.1/DTD/svg11.dtd">
<svg version="1.1" id="Layer_1" xmlns="http://www.w3.org/2000/svg" xmlns:xlink="http://www.w3.org/1999/xlink" x="0px" y="0px"
	 width="64px" height="64px" viewBox="0 0 64 64" enable-background="new 0 0 64 64" xml:space="preserve">
<title>Rdio</title>
<path fill="#FFFFFF" d="M53.342,28.439c8.179-2.424,12.974-11.088,9.529-11.258c-8.841-0.455-16.402-4.736-21.482-7.928
	c-0.546-0.36-1.1-0.695-1.664-1.011v19.916c0,6.578-3.973,11.826-8.499,14.005c-6.554,3.169-13.86,1.174-16.316-4.44
	c-2.454-5.613,0.872-12.731,7.432-15.899c3.625-1.75,7.481-1.913,10.622-0.772V5.602c-1.995-0.469-4.056-0.735-6.182-0.735
	C11.99,4.867,0,17.008,0,32c0,14.978,11.99,27.133,26.782,27.133c14.804,0,26.796-12.155,26.796-27.133
	C53.578,30.788,53.492,29.6,53.342,28.439z"/>
</svg>
