<?xml version="1.0" encoding="utf-8"?>
<!-- Generator: Adobe Illustrator 16.0.0, SVG Export Plug-In . SVG Version: 6.00 Build 0)  -->
<!DOCTYPE svg PUBLIC "-//W3C//DTD SVG 1.1//EN" "http://www.w3.org/Graphics/SVG/1.1/DTD/svg11.dtd">
<svg version="1.1" id="Layer_1" xmlns="http://www.w3.org/2000/svg" xmlns:xlink="http://www.w3.org/1999/xlink" x="0px" y="0px"
	 width="64px" height="64px" viewBox="0 0 64 64" enable-background="new 0 0 64 64" xml:space="preserve">
<title>Twitter</title>
<path id="RSS_1_" fill="#FFFFFF" d="M15.051,48.935c1.504,1.5,2.418,3.531,2.424,5.802c-0.006,2.259-0.92,4.299-2.418,5.787h-0.006
	c-1.493,1.497-3.546,2.408-5.819,2.408c-2.277,0-4.321-0.916-5.816-2.408C1.919,59.035,1,57.001,1,54.736
	c0-2.271,0.919-4.313,2.415-5.808v0.006c1.496-1.494,3.539-2.417,5.816-2.417C11.505,46.518,13.558,47.44,15.051,48.935z
	 M15.051,48.929v0.006l0,0V48.929z M3.415,60.523L3.415,60.523c-0.003,0-0.003,0-0.003,0H3.415z M1.005,22.085v11.837
	c7.724,0.005,15.042,3.041,20.509,8.519c5.471,5.468,8.493,12.791,8.507,20.549l0,0v0.017h11.895
	c-0.009-11.278-4.596-21.498-12.011-28.914C22.498,26.677,12.284,22.087,1.005,22.085z M1.026,0.994v11.837
	c27.624,0.021,50.087,22.518,50.109,50.175H63c-0.006-17.094-6.957-32.579-18.178-43.818C33.588,7.954,18.111,0.999,1.026,0.994z"/>
</svg>
