<?xml version="1.0" encoding="utf-8"?>
<!-- Generator: Adobe Illustrator 16.0.0, SVG Export Plug-In . SVG Version: 6.00 Build 0)  -->
<!DOCTYPE svg PUBLIC "-//W3C//DTD SVG 1.1//EN" "http://www.w3.org/Graphics/SVG/1.1/DTD/svg11.dtd">
<svg version="1.1" id="Layer_1" xmlns="http://www.w3.org/2000/svg" xmlns:xlink="http://www.w3.org/1999/xlink" x="0px" y="0px"
	 width="64px" height="64px" viewBox="0 0 64 64" enable-background="new 0 0 64 64" xml:space="preserve">
<title>Twitter</title>
<path fill="#FFFFFF" d="M61.186,38.111c0.428-1.955,0.665-4.133,0.665-6.348c0-16.201-13.252-29.547-29.562-29.547
	c-1.727,0-3.435,0.263-5.069,0.414C24.588,1.036,21.462,0,18.144,0C8.592,0,1,7.756,1,17.172c0,3.262,0.812,6.233,2.303,8.634
	c-0.39,2.076-0.584,3.998-0.584,5.957c0,16.387,13.247,29.58,29.571,29.58c1.841,0,3.65-0.119,5.405-0.473
	c2.416,1.393,5.198,2.125,8.141,2.125C55.266,62.996,63,55.242,63,45.842C63,42.994,62.334,40.4,61.186,38.111z M47.41,45.924
	c-1.349,1.916-3.356,3.436-5.994,4.527c-2.58,1.096-5.655,1.746-9.225,1.746c-4.239,0-7.812-0.764-10.577-2.234
	c-1.938-1.092-3.651-2.557-4.869-4.404c-1.244-1.832-1.881-3.504-1.881-5.285c0-1.092,0.396-2.072,1.182-2.883
	c0.814-0.752,1.856-1.131,3.119-1.131c0.999,0,1.906,0.324,2.606,0.994c0.66,0.482,1.279,1.465,1.725,2.58
	c0.542,1.166,1.097,2.094,1.705,2.994c0.56,0.77,1.408,1.277,2.469,1.891c1.065,0.457,2.528,0.766,4.338,0.766
	c2.404,0,4.426-0.619,5.937-1.52c1.46-1.068,2.179-2.232,2.179-3.727c0-1.131-0.363-2.143-1.142-2.875
	c-0.804-0.762-1.871-1.246-3.156-1.631c-1.337-0.52-3.159-0.988-5.425-1.414c-3.114-0.701-5.687-1.469-7.717-2.279
	c-2.179-1.008-3.85-2.202-5.148-3.729c-1.209-1.545-1.884-3.659-1.884-5.957c0-2.24,0.699-4.182,2.006-5.974
	c1.331-1.791,3.239-3.03,5.78-4.049c2.389-0.827,5.304-1.248,8.637-1.248c2.624,0,4.917,0.249,6.907,0.824
	c1.973,0.684,3.578,1.471,4.889,2.531c1.283,0.885,2.261,1.98,2.839,3.119c0.669,1.126,0.973,2.25,0.973,3.367
	c0,1.086-0.366,2.119-1.214,2.911c-0.83,0.807-1.857,1.205-3.056,1.205c-1.11,0-1.969-0.148-2.548-0.778
	c-0.556-0.431-1.11-1.188-1.727-2.302c-0.751-1.434-1.665-2.549-2.667-3.312c-1.017-0.754-2.627-1.14-4.948-1.14
	c-2.096,0-3.875,0.412-5.093,1.229c-1.267,0.921-1.865,1.767-1.865,2.882c0,0.704,0.183,1.182,0.594,1.787
	c0.456,0.453,0.977,0.856,1.729,1.241c0.786,0.388,1.606,0.724,2.425,1.007c0.841,0.122,2.176,0.48,4.068,0.895
	c2.401,0.616,4.619,1.098,6.544,1.787c1.953,0.677,3.698,1.438,5.056,2.271c1.4,1.014,2.482,2.162,3.315,3.615
	c0.797,1.285,1.27,3.088,1.27,5.166C49.566,41.789,48.847,44.025,47.41,45.924z"/>
</svg>
