<?xml version="1.0" encoding="utf-8"?>
<!-- Generator: Adobe Illustrator 16.0.0, SVG Export Plug-In . SVG Version: 6.00 Build 0)  -->
<!DOCTYPE svg PUBLIC "-//W3C//DTD SVG 1.1//EN" "http://www.w3.org/Graphics/SVG/1.1/DTD/svg11.dtd">
<svg version="1.1" id="Layer_1" xmlns="http://www.w3.org/2000/svg" xmlns:xlink="http://www.w3.org/1999/xlink" x="0px" y="0px"
	 width="64px" height="64px" viewBox="0 0 64 64" enable-background="new 0 0 64 64" xml:space="preserve">
<title>Twitter</title>
<path fill="#FFFFFF" d="M3.992,43.995c0.178,0,0.304-0.059,0.309-0.208l0.723-5.543l-0.722-5.486
	c-0.006-0.136-0.131-0.256-0.31-0.256c-0.064,0-0.214,0.121-0.263,0.256l-0.55,5.486l0.55,5.54
	C3.778,43.936,3.928,43.995,3.992,43.995z M2.029,41.718L2.029,41.718L2.029,41.718L2.029,41.718z M1.724,41.854
	c0.063,0,0.28-0.064,0.305-0.136l0.458-3.474l-0.458-3.361c-0.024-0.14-0.241-0.322-0.305-0.322c-0.065,0-0.272,0.183-0.304,0.323
	L1,38.244l0.421,3.474C1.452,41.788,1.659,41.854,1.724,41.854z M6.75,31.684c-0.03-0.217-0.153-0.339-0.241-0.339
	c-0.266,0-0.332,0.122-0.335,0.339l-0.663,6.561l0.663,6.452c0.004,0.096,0.069,0.211,0.335,0.211c0.088,0,0.211-0.115,0.237-0.21
	l0.634-6.453L6.75,31.684z M8.868,45.271c0.274,0,0.361-0.271,0.366-0.462l0,0l0.683-6.564l-0.683-6.779
	c-0.005-0.17-0.091-0.25-0.366-0.25c-0.112,0-0.362,0.08-0.367,0.25l-0.475,6.779l0.475,6.564C8.506,45,8.756,45.271,8.868,45.271z
	 M11.409,45.361c0.159,0,0.388-0.218,0.395-0.513l0,0l0.606-6.604l-0.606-6.229c-0.007-0.209-0.236-0.482-0.395-0.482
	c-0.297,0-0.392,0.275-0.396,0.484l-0.624,6.227l0.624,6.604C11.017,45.144,11.112,45.361,11.409,45.361z M14.852,38.246
	l-0.471-10.16c-0.005-0.338-0.288-0.516-0.484-0.516c-0.245,0-0.528,0.178-0.542,0.516l-0.428,10.16l0.428,6.621
	c0.014,0.373,0.296,0.562,0.542,0.562c0.197,0,0.479-0.188,0.484-0.58v0.019L14.852,38.246z M16.346,45.439
	c0.325,0,0.606-0.208,0.625-0.625v0.001l0.452-6.569l-0.452-12.534c-0.019-0.333-0.3-0.454-0.625-0.454
	c-0.212,0-0.45,0.121-0.453,0.454l-0.421,12.534l0.421,6.569C15.896,45.231,16.134,45.439,16.346,45.439z M18.918,24.053
	c-0.34,0-0.539,0.333-0.55,0.571l-0.49,13.622l0.49,6.537c0.011,0.329,0.21,0.645,0.55,0.645c0.337,0,0.625-0.315,0.641-0.647v0.003
	l0.444-6.537L19.56,24.624C19.543,24.387,19.255,24.053,18.918,24.053z M21.507,45.439c0.35,0,0.614-0.349,0.623-0.683v0.001
	l0.468-6.512L22.13,24.178c-0.009-0.337-0.273-0.555-0.623-0.555c-0.36,0-0.686,0.217-0.688,0.555l-0.386,14.068l0.386,6.512
	C20.822,45.091,21.147,45.439,21.507,45.439z M24.093,45.438c0.381,0,0.686-0.388,0.703-0.713v0.001l0.405-6.48l-0.405-13.678
	c-0.018-0.398-0.322-0.718-0.703-0.718c-0.371,0-0.705,0.32-0.707,0.718l-0.365,13.678l0.365,6.48
	C23.388,45.051,23.722,45.438,24.093,45.438z M27.812,38.246l-0.369-13.145c-0.014-0.479-0.354-0.738-0.746-0.738
	c-0.393,0-0.731,0.259-0.735,0.745l-0.354,13.139l0.354,6.455c0.004,0.326,0.342,0.74,0.735,0.74c0.391,0,0.732-0.414,0.746-0.743
	v0.003L27.812,38.246z M29.318,45.45c0.398,0,0.762-0.453,0.766-0.768v0.004l0.354-6.44l-0.354-15.733
	c-0.004-0.359-0.368-0.784-0.766-0.784c-0.452,0-0.774,0.425-0.776,0.784L28.21,38.246c0,0.005,0.332,6.44,0.332,6.44
	C28.544,44.997,28.866,45.45,29.318,45.45z M31.924,20.248c-0.538,0-0.916,0.481-0.933,0.841l-0.31,17.163l0.31,6.34
	c0.017,0.347,0.395,0.833,0.933,0.833c0.421,0,0.793-0.486,0.795-0.844v0.011l0.382-6.34l-0.382-17.166
	C32.717,20.729,32.345,20.248,31.924,20.248z M34.246,45.452c0.008,0.001,20.966,0.003,21.207,0.003
	c4.175,0,7.547-3.493,7.547-7.603c0-4.291-3.372-7.697-7.547-7.697c-1.077,0-2.139,0.29-2.966,0.562
	c-0.67-6.851-6.361-12.172-13.422-12.172c-1.788,0-3.386,0.271-4.871,0.841c-0.659,0.213-0.731,0.523-0.746,0.886v24.291
	C33.463,44.914,33.827,45.423,34.246,45.452z"/>
</svg>
