<?xml version="1.0" encoding="utf-8"?>
<!-- Generator: Adobe Illustrator 16.0.0, SVG Export Plug-In . SVG Version: 6.00 Build 0)  -->
<!DOCTYPE svg PUBLIC "-//W3C//DTD SVG 1.1//EN" "http://www.w3.org/Graphics/SVG/1.1/DTD/svg11.dtd">
<svg version="1.1" id="Layer_1" xmlns="http://www.w3.org/2000/svg" xmlns:xlink="http://www.w3.org/1999/xlink" x="0px" y="0px"
	 width="64px" height="64px" viewBox="0 0 64 64" enable-background="new 0 0 64 64" xml:space="preserve">
<title>Twitter</title>
<path fill="#FFFFFF" d="M63,32.001C63,14.883,49.123,1.01,31.999,1.01C14.875,1.01,1,14.883,1,32.001
	c0,8.177,3.198,15.587,8.375,21.131c2.043-2.419,4.512-4.371,7.334-5.807c3.324-1.687,6.899-2.538,10.632-2.538
	c5.931,0,11.603,2.221,15.964,6.235c2.198,2.037,3.964,4.429,5.27,7.137C57.236,52.66,63,43.017,63,32.001z M46.674,44.037
	c-0.395,0.571-1.045,0.879-1.701,0.879c-0.396,0-0.809-0.118-1.169-0.366c-4.853-3.358-10.545-5.143-16.463-5.143
	c-3.423,0-6.773,0.592-9.955,1.756c-1.068,0.399-2.255-0.15-2.647-1.227c-0.393-1.075,0.156-2.254,1.226-2.652
	c3.644-1.332,7.468-2.008,11.377-2.008c6.766,0,13.265,2.039,18.818,5.881C47.091,41.81,47.326,43.094,46.674,44.037z
	 M51.188,34.502c-0.438,0.709-1.202,1.092-1.979,1.092c-0.421,0-0.848-0.115-1.227-0.355c-6.181-3.854-13.32-5.898-20.642-5.898
	c-4.068,0-8.082,0.622-11.929,1.862c-1.218,0.387-2.533-0.285-2.918-1.505c-0.394-1.224,0.278-2.534,1.5-2.929
	c4.302-1.381,8.799-2.079,13.348-2.079c8.188,0,16.179,2.288,23.109,6.608C51.54,31.988,51.865,33.413,51.188,34.502z
	 M52.157,25.885c-7.498-4.406-16.084-6.733-24.816-6.733c-4.723,0-9.395,0.678-13.896,1.997c-1.367,0.408-2.807-0.375-3.208-1.742
	c-0.401-1.373,0.384-2.806,1.75-3.208c4.972-1.466,10.138-2.206,15.354-2.206c9.661,0,19.141,2.571,27.433,7.433
	c1.226,0.725,1.639,2.312,0.916,3.537c-0.482,0.818-1.342,1.275-2.233,1.275C53.017,26.237,52.572,26.126,52.157,25.885z"/>
<path fill="#FFFFFF" d="M27.341,55.726c-1.999,0-3.913,0.448-5.691,1.351c-1.312,0.668-2.486,1.555-3.49,2.617
	c4.172,2.094,8.859,3.297,13.839,3.297c2.197,0,4.352-0.238,6.42-0.684c-0.662-1.217-1.51-2.308-2.535-3.243
	C33.555,56.902,30.51,55.726,27.341,55.726z"/>
</svg>
