<?xml version="1.0" encoding="utf-8"?>
<!-- Generator: Adobe Illustrator 16.0.0, SVG Export Plug-In . SVG Version: 6.00 Build 0)  -->
<!DOCTYPE svg PUBLIC "-//W3C//DTD SVG 1.1//EN" "http://www.w3.org/Graphics/SVG/1.1/DTD/svg11.dtd">
<svg version="1.1" id="Layer_1" xmlns="http://www.w3.org/2000/svg" xmlns:xlink="http://www.w3.org/1999/xlink" x="0px" y="0px"
	 width="64px" height="64px" viewBox="0 0 64 64" enable-background="new 0 0 64 64" xml:space="preserve">
<title>Twitter</title>
<g>
	<path fill="#F06D1B" d="M26.581,50.685c-1.546-3.473-2.384-7.229-2.476-11.006c-2.488,3.85-4.369,7.72-5.621,10.607
		c-0.062,0.141-0.979,2.413-1.249,3.119c-0.332,0.875,0.121,1.891,0.993,2.229c0.706,0.273,3.009,1.111,3.153,1.16
		c2.956,0.992,7.04,2.17,11.514,2.898C30.245,57.136,28.086,54.065,26.581,50.685z"/>
	<path fill="#FFFFFF" d="M32.542,22.666C23.803,4.807,4.392,5.443,1.328,13.425c-2.352,6.128,7.938,20.727,31.617,10.184
		c0.006-0.002,0.008-0.004,0.012-0.006C32.878,23.458,32.601,22.83,32.542,22.666z"/>
	<path fill="#FFFFFF" d="M36.648,21.439c-4.833-12,3.629-18.887,8.287-17.1c3.461,1.328,5.328,11.671-8.045,17.626
		c-0.002,0-0.005,0.001-0.007,0.002C36.853,21.881,36.694,21.527,36.648,21.439z"/>
	<g>
		<path fill="#F06D1B" d="M61.476,35.044c-2.024-4.55-5.741-7.811-10.062-9.365c-0.434-0.157-0.881-0.229-1.323-0.229
			c-2.243,0-4.405,1.868-4.608,4.2c-0.342,3.891,0.428,7.851,2.129,11.671c1.676,3.764,4.051,6.946,7.107,9.285
			c0.794,0.608,1.768,0.895,2.74,0.895c1.752,0,3.499-0.93,4.193-2.594C63.438,44.63,63.52,39.636,61.476,35.044z"/>
		<path fill="#F06D1B" d="M51.326,55.04c-3.742-2.864-6.709-6.716-8.814-11.447c-2.137-4.799-3.009-9.653-2.591-14.429
			c0.116-1.33,0.503-2.61,1.126-3.781c-0.111,0.027-0.348,0.086-0.356,0.088c-1.968,0.492-3.874,1.348-5.567,2.461
			c-2.454,1.615-4.617,4.008-5.55,6.836c-0.251,0.763-0.439,1.6-0.502,2.401c-0.299,3.822,0.323,7.772,1.992,11.521
			c1.614,3.625,4.023,6.648,6.931,8.957c1.771,1.406,4.965,2.294,7.576,2.294c2.451,0,4.871-0.731,7.043-1.837
			c0.68-0.346,2.176-1.281,2.273-1.348C53.592,56.424,52.373,55.843,51.326,55.04z"/>
	</g>
</g>
</svg>
