<?xml version="1.0" encoding="utf-8"?>
<!-- Generator: Adobe Illustrator 16.0.0, SVG Export Plug-In . SVG Version: 6.00 Build 0)  -->
<!DOCTYPE svg PUBLIC "-//W3C//DTD SVG 1.1//EN" "http://www.w3.org/Graphics/SVG/1.1/DTD/svg11.dtd">
<svg version="1.1" id="Layer_1" xmlns="http://www.w3.org/2000/svg" xmlns:xlink="http://www.w3.org/1999/xlink" x="0px" y="0px"
	 width="64px" height="64px" viewBox="0 0 64 64" enable-background="new 0 0 64 64" xml:space="preserve">
<title>Twitter</title>
<path fill="#FFFFFF" d="M62.972,17.607c-0.292,6.003-4.494,14.252-12.623,24.708c-8.44,11.075-15.536,16.432-21.431,16.432
	c-3.635,0-6.684-3.342-9.118-9.869c-1.72-6.222-3.387-12.278-5.066-18.507c-1.832-6.531-3.805-9.874-5.985-9.874
	c-0.428,0-2.091,0.861-4.839,2.782L1,19.526c3.061-2.655,6.087-5.314,9.049-7.958c4.003-3.629,7.079-5.317,9.145-5.593
	c4.807-0.423,7.779,2.905,8.931,9.803c1.165,7.709,2.045,12.343,2.43,14.187c1.398,6.337,2.912,9.58,4.62,9.58
	c1.271,0,3.257-2.136,5.799-6.216c2.672-4.105,4.023-7.145,4.257-9.341c0.298-3.45-1.068-5.251-4.257-5.251
	c-1.473,0-3.001,0.335-4.559,1.039c3.037-9.996,8.931-14.837,17.53-14.508C60.332,5.526,63.33,9.659,62.972,17.607z"/>
</svg>
