<?xml version="1.0" encoding="utf-8"?>
<!-- Generator: Adobe Illustrator 16.0.0, SVG Export Plug-In . SVG Version: 6.00 Build 0)  -->
<!DOCTYPE svg PUBLIC "-//W3C//DTD SVG 1.1//EN" "http://www.w3.org/Graphics/SVG/1.1/DTD/svg11.dtd">
<svg version="1.1" id="Layer_1" xmlns="http://www.w3.org/2000/svg" xmlns:xlink="http://www.w3.org/1999/xlink" x="0px" y="0px"
	 width="64px" height="64px" viewBox="0 0 64 64" enable-background="new 0 0 64 64" xml:space="preserve">
<title>Twitter</title>
<path id="Vine_2_" fill="#FFFFFF" d="M40.796,13.639c0-4.633,9.121-7.036,9.121,0.803c-0.031,4.302-0.607,8.273-1.535,11.913h9.479
	c0.723-4.392,0.692-8.729,0.692-13.838c0-14.395-26.551-16.793-26.551,1.445c0,12.806,6.033,19.543,12.343,23.09
	c-5.262,10.316-12.343,15.939-12.343,15.939C12.167,36.836,14.089,9.48,14.089,9.48H5.448c0.165,36.954,19.679,49.909,22.078,51.831
	c2.398,1.922,2.88,1.762,5.762,1.6c2.873-0.16,9.428-6.723,17.431-19.193c0.77-1.209,1.461-2.361,2.093-3.484
	c3.346,0.75,5.742,0.764,5.742,0.764v-7.84C41.753,31.555,40.796,17.16,40.796,13.639z"/>
</svg>
