<svg xmlns="http://www.w3.org/2000/svg" width="64" height="64" viewBox="0 0 64 64"><path fill="#fff" d="M4.55 32c0 10.864 6.312 20.255 15.47 24.704L6.927 20.828C5.402 24.242 4.55 28.018 4.55 32zm45.982-1.385c0-3.394-1.22-5.743-2.263-7.57-1.394-2.262-2.698-4.175-2.698-6.44 0-2.52 1.912-4.87 4.61-4.87.12 0 .235.015.355.02C45.653 7.283 39.147 4.553 32 4.553c-9.592 0-18.026 4.918-22.938 12.37.646.02 1.252.034 1.77.034 2.87 0 7.314-.35 7.314-.35 1.48-.087 1.656 2.088.176 2.264 0 0-1.487.173-3.143.26l9.997 29.734 6.007-18.017L26.91 19.13c-1.48-.088-2.88-.26-2.88-.26-1.48-.09-1.308-2.352.174-2.266 0 0 4.532.35 7.23.35 2.87 0 7.315-.35 7.315-.35 1.48-.086 1.654 2.09.175 2.265 0 0-1.49.172-3.14.26l9.92 29.508 2.738-9.148c1.39-3.57 2.09-6.524 2.09-8.875zm-18.05 3.783l-8.237 23.935c2.46.725 5.06 1.118 7.754 1.118 3.196 0 6.262-.552 9.115-1.554-.073-.117-.14-.24-.195-.38l-8.438-23.118zM56.09 18.83c.115.875.184 1.812.184 2.823 0 2.786-.52 5.917-2.09 9.832l-8.383 24.242c8.164-4.76 13.65-13.6 13.65-23.728 0-4.774-1.22-9.26-3.36-13.17zM0 32c0 17.646 14.356 32 32 32 17.643 0 32-14.354 32-32C64 14.355 49.643 0 32 0 14.355 0 0 14.355 0 32zm1.468 0c0-16.834 13.697-30.53 30.53-30.53 16.838 0 30.535 13.696 30.535 30.53 0 16.835-13.697 30.533-30.534 30.533C15.164 62.533 1.467 48.835 1.467 32z"/></svg>