<?xml version="1.0" encoding="utf-8"?>
<!-- Generator: Adobe Illustrator 16.0.0, SVG Export Plug-In . SVG Version: 6.00 Build 0)  -->
<!DOCTYPE svg PUBLIC "-//W3C//DTD SVG 1.1//EN" "http://www.w3.org/Graphics/SVG/1.1/DTD/svg11.dtd">
<svg version="1.1" id="Layer_1" xmlns="http://www.w3.org/2000/svg" xmlns:xlink="http://www.w3.org/1999/xlink" x="0px" y="0px"
	 width="64px" height="64px" viewBox="0 0 64 64" enable-background="new 0 0 64 64" xml:space="preserve">
<title>Twitter</title>
<g>
	<path fill="#FFFFFF" d="M50.881,22.553c0.373-0.048,0.908-0.108,1.398-0.173h4.439l0.705-1.079
		c0.008-0.002,0.021-0.003,0.057-0.003l1.871-2.549c-0.037,0-0.1-0.002-0.152-0.002l0.219-0.312H35.094l1.029,3.944h6.582
		l-11.116,9.883c-2.301-3.049-7.641-9.517-11.339-15.019h8.372v-2.926l0.099-0.529c-0.036-0.002-0.053-0.004-0.099-0.004v-0.308H1
		v3.767h8.186c3.152,2.546,15.251,17.651,15.847,19.165c0.125,1.421,0.297,9.899-0.241,10.426c-1.199,1.382-6.599,1.024-7.938,1.079
		l-0.542,2.604c2.477,0.021,10.29-0.244,12.658-0.244c4.863,0,13.263-0.053,14.402,0.151l0.207-2.847
		c-1.277-0.086-7.898-0.008-8.779-0.123c-0.139-1.396-0.451-10.112-0.148-11.104C35.516,33.709,49.332,22.979,50.881,22.553z"/>
	<path fill="#FFFFFF" d="M54.947,43.438l3.707,0.319L63,26.99c-0.721-0.006-7.312-0.565-8.123-0.783L54.947,43.438z"/>
	<polygon fill="#FFFFFF" points="54.273,46.065 54.279,50.171 56.172,50.424 58.148,50.522 58.77,46.471 56.598,46.413 	"/>
</g>
</svg>
